<svg t="1736170596734" class="icon" viewBox="0 0 1024 1024" version="1.1"
    xmlns="http://www.w3.org/2000/svg" p-id="9211" width="200" height="200">
    <path
        d="M640.085333 166.4a38.4 38.4 0 1 1 0-76.8h256a38.4 38.4 0 0 1 38.4 38.4v256a38.4 38.4 0 0 1-76.8 0V220.714667l-233.130666 233.088a38.4 38.4 0 1 1-54.314667-54.272L803.413333 166.4h-163.285333z m-186.197333 403.797333a38.4 38.4 0 0 1 0 54.272L220.757333 857.6h163.328a38.4 38.4 0 1 1 0 76.8h-256a38.4 38.4 0 0 1-38.4-38.4v-256a38.4 38.4 0 1 1 76.8 0v163.285333l233.088-233.088a38.4 38.4 0 0 1 54.314667 0z"
        fill="#25282B" p-id="9212"></path>
</svg>